<?xml version="1.0" encoding="UTF-8" standalone="no"?>
<!-- Created with Inkscape (http://www.inkscape.org/) -->

<svg
   xmlns:dc="http://purl.org/dc/elements/1.1/"
   xmlns:cc="http://creativecommons.org/ns#"
   xmlns:rdf="http://www.w3.org/1999/02/22-rdf-syntax-ns#"
   xmlns:svg="http://www.w3.org/2000/svg"
   xmlns="http://www.w3.org/2000/svg"
   xmlns:xlink="http://www.w3.org/1999/xlink"
   xmlns:sodipodi="http://sodipodi.sourceforge.net/DTD/sodipodi-0.dtd"
   xmlns:inkscape="http://www.inkscape.org/namespaces/inkscape"
   width="128"
   height="128"
   id="svg2"
   version="1.1"
   inkscape:version="0.47pre0 r21549"
   sodipodi:docname="New document 1"
   inkscape:output_extension="org.inkscape.output.svg.inkscape">
  <defs
     id="defs4">
    <linearGradient
       id="linearGradient3816">
      <stop
         style="stop-color:#a40000;stop-opacity:1;"
         offset="0"
         id="stop3818" />
      <stop
         style="stop-color:#ffffff;stop-opacity:0;"
         offset="1"
         id="stop3820" />
    </linearGradient>
    <inkscape:path-effect
       is_visible="true"
       id="path-effect3768"
       effect="spiro" />
    <inkscape:path-effect
       effect="spiro"
       id="path-effect3753"
       is_visible="true" />
    <inkscape:path-effect
       effect="spiro"
       id="path-effect3749"
       is_visible="true" />
    <inkscape:path-effect
       effect="spiro"
       id="path-effect3745"
       is_visible="true" />
    <inkscape:path-effect
       effect="spiro"
       id="path-effect3741"
       is_visible="true" />
    <linearGradient
       inkscape:collect="always"
       id="linearGradient3594">
      <stop
         style="stop-color:#cc0000;stop-opacity:1;"
         offset="0"
         id="stop3596" />
      <stop
         style="stop-color:#cc0000;stop-opacity:0;"
         offset="1"
         id="stop3598" />
    </linearGradient>
    <inkscape:perspective
       sodipodi:type="inkscape:persp3d"
       inkscape:vp_x="0 : 526.18109 : 1"
       inkscape:vp_y="0 : 1000 : 0"
       inkscape:vp_z="744.09448 : 526.18109 : 1"
       inkscape:persp3d-origin="372.04724 : 350.78739 : 1"
       id="perspective10" />
    <linearGradient
       inkscape:collect="always"
       xlink:href="#linearGradient3594"
       id="linearGradient3600"
       x1="62.552982"
       y1="1025.3536"
       x2="62.552982"
       y2="971.61652"
       gradientUnits="userSpaceOnUse" />
    <inkscape:perspective
       id="perspective3727"
       inkscape:persp3d-origin="0.5 : 0.33333333 : 1"
       inkscape:vp_z="1 : 0.5 : 1"
       inkscape:vp_y="0 : 1000 : 0"
       inkscape:vp_x="0 : 0.5 : 1"
       sodipodi:type="inkscape:persp3d" />
    <filter
       inkscape:collect="always"
       id="filter3776">
      <feGaussianBlur
         inkscape:collect="always"
         stdDeviation="0.6626835"
         id="feGaussianBlur3778" />
    </filter>
    <filter
       inkscape:collect="always"
       id="filter3802">
      <feGaussianBlur
         inkscape:collect="always"
         stdDeviation="0.81181005"
         id="feGaussianBlur3804" />
    </filter>
    <linearGradient
       inkscape:collect="always"
       xlink:href="#linearGradient3816"
       id="linearGradient3822"
       x1="66.922607"
       y1="928.7337"
       x2="66.922607"
       y2="1051.2999"
       gradientUnits="userSpaceOnUse" />
  </defs>
  <sodipodi:namedview
     id="base"
     pagecolor="#ffffff"
     bordercolor="#666666"
     borderopacity="1.0"
     inkscape:pageopacity="0.0"
     inkscape:pageshadow="2"
     inkscape:zoom="3.959798"
     inkscape:cx="24.692145"
     inkscape:cy="73.36477"
     inkscape:document-units="px"
     inkscape:current-layer="layer1"
     showgrid="false"
     inkscape:window-width="1280"
     inkscape:window-height="956"
     inkscape:window-x="0"
     inkscape:window-y="23"
     inkscape:window-maximized="1" />
  <metadata
     id="metadata7">
    <rdf:RDF>
      <cc:Work
         rdf:about="">
        <dc:format>image/svg+xml</dc:format>
        <dc:type
           rdf:resource="http://purl.org/dc/dcmitype/StillImage" />
        <dc:title></dc:title>
      </cc:Work>
    </rdf:RDF>
  </metadata>
  <g
     inkscape:label="Layer 1"
     inkscape:groupmode="layer"
     id="layer1"
     transform="translate(0,-924.36218)">
    <rect
       ry="6.8296452"
       rx="6.8296452"
       y="936.24152"
       x="9.8793297"
       height="108.24134"
       width="108.24134"
       id="rect3780"
       style="fill:#2e3436;fill-opacity:1;stroke:#2e3436;stroke-width:0.75000000000000000;stroke-linecap:round;stroke-linejoin:round;stroke-miterlimit:4;stroke-opacity:1;stroke-dasharray:none;opacity:0.69999999999999996;filter:url(#filter3802)" />
    <rect
       style="fill:#ef2929;fill-opacity:1;stroke:#cc0000;stroke-width:0.75;stroke-linecap:round;stroke-linejoin:round;stroke-miterlimit:4;stroke-opacity:1;stroke-dasharray:none"
       id="rect2816"
       width="108.24134"
       height="108.24134"
       x="9.8793297"
       y="934.24152"
       rx="6.8296452"
       ry="6.8296452" />
    <rect
       style="fill:url(#linearGradient3822);fill-opacity:1;stroke:none"
       id="rect3806"
       width="105.96849"
       height="105.96849"
       x="11.015755"
       y="935.37793"
       rx="6.6862369"
       ry="6.6862369" />
    <rect
       ry="6.6862369"
       rx="6.6862369"
       y="935.37793"
       x="11.015755"
       height="105.96849"
       width="105.96849"
       id="rect3590"
       style="fill:url(#linearGradient3600);fill-opacity:1;stroke:none" />
    <path
       style="fill:none;stroke:#d3d7cf;stroke-width:7.87250090000000036;stroke-miterlimit:4;stroke-opacity:1;stroke-dasharray:none"
       d="m 61.277036,1006.1195 c -3.357837,2.8022 -7.525205,4.6229 -11.862763,5.1826 -4.337557,0.5597 -8.830576,-0.1435 -12.789755,-2.0016 -6.252585,-2.9344 -11.027824,-8.772 -12.838109,-15.43745 -1.810285,-6.66548 -0.676783,-14.04068 2.897572,-19.95082 1.61534,-2.67094 3.733124,-5.07652 6.361945,-6.75954 3.95695,-2.53331 8.82183,-3.28347 13.519127,-3.18102 3.061769,0.0668 6.13631,0.47533 9.029808,1.47861 2.893498,1.00327 5.606068,2.62105 7.670283,4.88333 2.262413,2.47949 3.667661,5.6323 4.608108,8.85441 0.940446,3.2221 1.450122,6.55129 2.151458,9.83375 0.844788,3.95386 1.979174,7.87134 3.779268,11.49163 1.800093,3.6202 4.293736,6.9465 7.536956,9.3606 3.24322,2.4142 7.270402,3.87 11.308816,3.6754 2.019207,-0.097 4.023313,-0.6044 5.821882,-1.5273 1.798568,-0.9229 3.387528,-2.2646 4.555658,-3.9145 1.46198,-2.0649 2.24527,-4.6402 1.98807,-7.1572 -0.28821,-2.82039 -1.84259,-5.39568 -3.85319,-7.39447 -2.010606,-1.99878 -4.463514,-3.48756 -6.929391,-4.88653 -2.465877,-1.39897 -4.985048,-2.7376 -7.207656,-4.49762 -2.222608,-1.76003 -4.160585,-3.99634 -5.071771,-6.681 -0.809447,-2.3849 -0.753472,-5.05335 0.155274,-7.4022 0.908745,-2.34886 2.6633,-4.36015 4.867097,-5.57926 2.203796,-1.21911 4.839955,-1.63672 7.312645,-1.15843 2.472689,0.47829 4.762972,1.84881 6.353192,3.8018"
       id="path3751"
       inkscape:path-effect="#path-effect3753"
       inkscape:original-d="m 61.277036,1006.1195 c -6.994365,6.3086 -15.63516,8.839 -24.652518,3.181 -8.090866,-5.0767 -15.425437,-27.83092 -9.940537,-35.38827 2.578817,-3.55324 1.665382,-3.6286 6.361945,-6.75954 1.386621,-0.92444 11.186655,-5.51348 13.519127,-3.18102 4.002187,4.00222 12.683898,2.34576 16.700091,6.36194 2.73969,2.73963 5.72772,17.65638 6.759566,18.68816 7.548992,7.54902 15.540462,36.54793 33.00258,19.08583 1.39045,-1.3904 0.78897,-5.958 1.98807,-7.1572 7.68793,-7.68784 -19.334538,-19.73218 -23.062008,-23.45962 -7.35206,-7.35207 10.87577,-22.05685 18.688208,-10.33809"
       sodipodi:nodetypes="csssssssssc" />
    <path
       sodipodi:nodetypes="csssssssssc"
       inkscape:original-d="m 61.277036,1006.1195 c -6.994365,6.3086 -15.63516,8.839 -24.652518,3.181 -8.090866,-5.0767 -15.425437,-27.83092 -9.940537,-35.38827 2.578817,-3.55324 1.665382,-3.6286 6.361945,-6.75954 1.386621,-0.92444 11.186655,-5.51348 13.519127,-3.18102 4.002187,4.00222 12.683898,2.34576 16.700091,6.36194 2.73969,2.73963 5.72772,17.65638 6.759566,18.68816 7.548992,7.54902 15.540462,36.54793 33.00258,19.08583 1.39045,-1.3904 0.78897,-5.958 1.98807,-7.1572 7.68793,-7.68784 -19.334538,-19.73218 -23.062008,-23.45962 -7.35206,-7.35207 10.87577,-22.05685 18.688208,-10.33809"
       inkscape:path-effect="#path-effect3753"
       id="path3770"
       d="m 61.277036,1006.1195 c -3.357837,2.8022 -7.525205,4.6229 -11.862763,5.1826 -4.337557,0.5597 -8.830576,-0.1435 -12.789755,-2.0016 -6.252585,-2.9344 -11.027824,-8.772 -12.838109,-15.43745 -1.810285,-6.66548 -0.676783,-14.04068 2.897572,-19.95082 1.61534,-2.67094 3.733124,-5.07652 6.361945,-6.75954 3.95695,-2.53331 8.82183,-3.28347 13.519127,-3.18102 3.061769,0.0668 6.13631,0.47533 9.029808,1.47861 2.893498,1.00327 5.606068,2.62105 7.670283,4.88333 2.262413,2.47949 3.667661,5.6323 4.608108,8.85441 0.940446,3.2221 1.450122,6.55129 2.151458,9.83375 0.844788,3.95386 1.979174,7.87134 3.779268,11.49163 1.800093,3.6202 4.293736,6.9465 7.536956,9.3606 3.24322,2.4142 7.270402,3.87 11.308816,3.6754 2.019207,-0.097 4.023313,-0.6044 5.821882,-1.5273 1.798568,-0.9229 3.387528,-2.2646 4.555658,-3.9145 1.46198,-2.0649 2.24527,-4.6402 1.98807,-7.1572 -0.28821,-2.82039 -1.84259,-5.39568 -3.85319,-7.39447 -2.010606,-1.99878 -4.463514,-3.48756 -6.929391,-4.88653 -2.465877,-1.39897 -4.985048,-2.7376 -7.207656,-4.49762 -2.222608,-1.76003 -4.160585,-3.99634 -5.071771,-6.681 -0.809447,-2.3849 -0.753472,-5.05335 0.155274,-7.4022 0.908745,-2.34886 2.6633,-4.36015 4.867097,-5.57926 2.203796,-1.21911 4.839955,-1.63672 7.312645,-1.15843 2.472689,0.47829 4.762972,1.84881 6.353192,3.8018"
       style="fill:none;stroke:#ffffff;stroke-width:5;stroke-miterlimit:4;stroke-opacity:1;stroke-dasharray:none;opacity:0.75;filter:url(#filter3776)" />
  </g>
</svg>
